<?xml version="1.0" standalone="no"?>
<!DOCTYPE svg PUBLIC "-//W3C//DTD SVG 20010904//EN"
 "http://www.w3.org/TR/2001/REC-SVG-20010904/DTD/svg10.dtd">
<svg version="1.0" xmlns="http://www.w3.org/2000/svg"
 width="1080.000000pt" height="1080.000000pt" viewBox="0 0 1080.000000 1080.000000"
 preserveAspectRatio="xMidYMid meet">
<metadata>
Created by potrace 1.14, written by Peter Selinger 2001-2017
</metadata>
<g transform="translate(0.000000,1080.000000) scale(0.100000,-0.100000)"
fill="#000000" stroke="none">
<path d="M5120 10754 c-987 -68 -1842 -348 -2634 -862 -893 -578 -1612 -1435
-2021 -2407 -213 -505 -330 -958 -397 -1535 -19 -168 -22 -245 -22 -555 0
-309 3 -387 22 -555 45 -388 99 -648 214 -1035 108 -365 320 -831 540 -1192
399 -653 961 -1240 1598 -1668 612 -411 1316 -697 2031 -824 414 -74 944 -109
1239 -82 69 6 179 16 245 22 464 41 979 163 1420 336 156 61 176 70 356 154
771 358 1481 940 2009 1644 314 419 551 855 734 1350 138 371 215 678 286
1145 23 151 42 411 47 635 12 547 -91 1204 -275 1760 -209 631 -547 1234 -986
1760 -134 160 -501 527 -656 655 -363 300 -706 522 -1114 720 -574 279 -1117
434 -1786 511 -168 19 -698 33 -850 23z m1254 -1480 c9 -8 16 -23 16 -32 0 -9
-39 -71 -86 -137 -92 -128 -112 -165 -170 -315 -62 -158 -102 -200 -204 -220
-109 -21 -181 5 -230 85 -12 19 -28 35 -35 35 -20 0 -5 45 47 137 45 82 132
178 183 203 17 8 55 33 85 55 30 22 68 49 85 60 42 28 268 144 282 144 6 1 19
-6 27 -15z m-2290 -180 c23 -22 20 -61 -7 -87 -33 -32 -82 -97 -102 -137 -31
-60 -75 -220 -90 -328 -9 -57 -24 -120 -34 -140 -25 -48 -76 -100 -115 -116
-56 -23 -154 -39 -198 -32 -87 14 -119 59 -121 170 -1 65 3 79 42 158 86 173
309 397 483 485 91 46 118 51 142 27z m4857 -604 c34 -19 25 -68 -24 -130 -81
-103 -217 -340 -272 -473 -60 -144 -84 -174 -164 -202 -96 -33 -243 -10 -298
47 -25 27 -28 36 -28 101 0 71 1 74 57 157 37 56 102 130 190 215 151 148 252
214 404 264 101 34 108 35 135 21z m-3266 -120 c269 -28 324 -47 414 -146 59
-64 79 -100 122 -217 38 -101 49 -166 50 -282 0 -127 -16 -217 -73 -400 -61
-193 -127 -331 -251 -519 -161 -243 -234 -323 -387 -428 -74 -50 -248 -123
-330 -138 -138 -26 -401 50 -539 155 -115 87 -178 186 -236 365 -24 76 -28
104 -32 260 -4 152 -1 196 20 336 30 190 58 268 148 412 75 121 146 205 219
263 30 24 63 53 73 65 9 13 48 46 85 76 37 29 69 55 72 58 10 10 216 108 250
119 27 8 119 27 200 40 3 1 91 -8 195 -19z m-2122 -365 c57 -10 103 -25 137
-45 164 -97 276 -208 324 -324 14 -33 14 -37 1 -26 -16 14 -20 3 -6 -19 5 -7
13 -11 19 -8 11 8 49 -115 62 -203 5 -36 14 -92 20 -125 27 -137 -17 -366
-136 -718 -83 -244 -165 -365 -367 -540 -143 -124 -154 -131 -222 -160 -99
-41 -168 -52 -340 -52 -143 0 -165 3 -207 22 -162 74 -288 220 -324 373 -53
228 -57 263 -51 515 5 201 10 262 31 377 25 128 83 312 137 427 42 91 141 201
247 274 33 23 89 63 123 88 87 64 228 138 280 148 70 14 179 12 272 -4z m4414
-445 c142 -25 162 -34 240 -100 86 -72 142 -147 202 -270 70 -142 88 -233 71
-349 -15 -103 -90 -351 -129 -430 -86 -170 -168 -287 -290 -417 -47 -50 -108
-119 -136 -154 -91 -117 -179 -201 -275 -264 -197 -128 -364 -181 -550 -173
-98 4 -113 8 -230 56 -69 28 -135 51 -147 51 -13 0 -23 4 -23 8 0 5 -12 15
-26 22 -38 21 -102 106 -115 153 -6 22 -24 63 -39 91 -61 108 -81 261 -55 431
28 193 55 291 111 413 19 40 34 74 34 77 0 2 25 48 56 102 80 138 165 252 232
311 31 27 84 75 117 106 76 72 168 124 405 231 115 52 347 123 408 124 13 1
75 -8 139 -19z m1501 -1062 c21 -21 13 -46 -29 -85 -72 -66 -155 -257 -219
-500 -29 -109 -63 -169 -117 -203 -41 -26 -56 -30 -119 -30 -66 0 -74 3 -117
35 -77 59 -75 118 8 271 30 54 82 126 138 188 129 145 194 200 377 319 30 19
62 21 78 5z m-4043 -484 c50 -9 110 -19 135 -24 42 -7 156 -51 217 -84 16 -8
102 -49 193 -90 91 -42 179 -84 195 -93 17 -9 59 -32 94 -50 239 -124 417
-354 539 -698 41 -116 55 -174 80 -335 17 -107 36 -258 42 -335 15 -183 35
-345 60 -475 74 -388 85 -484 84 -730 0 -204 -3 -247 -22 -330 -12 -52 -28
-126 -37 -165 -24 -110 -117 -380 -162 -470 -44 -87 -237 -298 -333 -364 -30
-21 -75 -47 -100 -58 -25 -11 -65 -36 -90 -54 -134 -100 -312 -184 -470 -219
-132 -30 -307 -36 -445 -16 -135 19 -335 83 -409 130 -30 19 -74 45 -98 57
-24 12 -45 25 -48 29 -3 3 -25 20 -50 37 -86 59 -212 198 -292 324 -45 70
-162 342 -185 428 -14 53 -34 110 -45 128 -30 50 -102 108 -190 154 -130 66
-244 65 -468 -6 -41 -13 -101 -29 -133 -35 -32 -6 -104 -27 -160 -45 -136 -44
-160 -49 -341 -66 -394 -37 -719 29 -931 189 -253 192 -390 389 -456 656 -50
199 -49 337 2 485 11 31 31 101 44 156 33 142 76 253 142 369 106 187 157 256
308 413 100 106 201 184 305 238 350 179 567 276 730 327 325 100 806 271 950
338 175 81 233 101 604 206 296 84 554 111 741 78z m3190 -429 c178 -45 305
-168 351 -340 31 -116 3 -445 -50 -590 -53 -144 -129 -312 -168 -371 -103
-154 -337 -412 -503 -553 -103 -88 -305 -140 -464 -120 -110 13 -284 93 -361
165 -95 89 -204 291 -247 457 -35 137 -30 188 35 348 63 154 103 227 179 320
32 40 69 86 82 103 84 107 295 287 499 424 138 93 158 102 289 138 159 43 243
48 358 19z"/>
<path d="M5978 8768 c-27 -41 -30 -57 -9 -43 15 9 43 64 39 76 -2 5 -15 -9
-30 -33z"/>
<path d="M5800 8730 c0 -5 5 -10 10 -10 6 0 10 5 10 10 0 6 -4 10 -10 10 -5 0
-10 -4 -10 -10z"/>
<path d="M9194 6219 c-3 -6 -2 -15 4 -21 6 -6 11 -2 15 11 5 22 -7 29 -19 10z"/>
</g>
</svg>
